<svg xmlns="http://www.w3.org/2000/svg" width="1280" height="800" viewBox="0 0 1280 800"><title>FlowPack 可编辑设计源：加载-已知当前阶段 · Light</title><g font-family="Segoe UI,Microsoft YaHei UI,Microsoft YaHei,sans-serif"><rect x="0.00" y="0.00" width="1280.00" height="800.00" rx="0" fill="#F5F5F7" stroke="none"/><rect x="0.00" y="0.00" width="1280.00" height="64.00" rx="0" fill="#F5F5F7" stroke="none"/><text x="24.00" y="32.00" font-size="20" font-weight="600" fill="#1D1D1F">FlowPack</text><text x="24.00" y="51.00" font-size="10" font-weight="400" fill="#646469">COMFYUI RESOURCE TOOL</text><text x="543.00" y="26.00" font-size="14" font-weight="600" fill="#1D1D1F">首页</text><text x="603.00" y="26.00" font-size="14" font-weight="400" fill="#1D1D1F">资源库</text><text x="677.00" y="26.00" font-size="14" font-weight="400" fill="#1D1D1F">导入安装</text><g opacity="1"><rect x="1086" y="12" width="86" height="38" rx="8" fill="#FFFFFF" stroke="#DFDFE3"/><text x="1129.0" y="36" text-anchor="middle" font-size="14" font-weight="600" fill="#1D1D1F">选择实例</text></g><text x="1188.00" y="26.00" font-size="14" font-weight="400" fill="#1D1D1F">设置</text><rect x="0.00" y="64.00" width="1280.00" height="51.85" rx="0" fill="#FFFFFF" stroke="none"/><text x="12.00" y="89.00" font-size="13" font-weight="400" fill="#1D1D1F">扫描实例 · 识别工作流 · 42%</text><rect x="12" y="100.85" width="1256" height="3" fill="#DFDFE3"/><rect x="12" y="100.85" width="527.52" height="3" fill="#1D1D1F"/><text x="32.00" y="177.85" font-size="30" font-weight="600" fill="#1D1D1F">让 ComfyUI 资源井然有序</text><text x="32.00" y="212.35" font-size="13" font-weight="400" fill="#646469">管理所选实例的资源，或导入资源包检查并安装。</text><rect x="32.00" y="242.20" width="892.00" height="286.00" rx="12" fill="#FFFFFF" stroke="#DFDFE3"/><text x="52.00" y="279.20" font-size="17" font-weight="600" fill="#1D1D1F">当前实例</text><g opacity="1"><rect x="720.0" y="262.2" width="86" height="38" rx="8" fill="#FFFFFF" stroke="#DFDFE3"/><text x="763.0" y="286.2" text-anchor="middle" font-size="14" font-weight="600" fill="#1D1D1F">重新扫描</text></g><g opacity="1"><rect x="818.0" y="262.2" width="86" height="38" rx="8" fill="#FFFFFF" stroke="#DFDFE3"/><text x="861.0" y="286.2" text-anchor="middle" font-size="14" font-weight="600" fill="#1D1D1F">关联目录</text></g><text x="52.00" y="326.20" font-size="14" font-weight="600" fill="#1D1D1F">ComfyUI Desktop · 示例实例</text><text x="52.00" y="357.50" font-size="13" font-weight="400" fill="#646469">ComfyUI Core  未确认     Desktop  未确认</text><g opacity="1"><rect x="52" y="375.35" width="112" height="38" rx="8" fill="#FFFFFF" stroke="#DFDFE3"/><text x="108.0" y="399.35" text-anchor="middle" font-size="14" font-weight="600" fill="#1D1D1F">工作流文件夹</text></g><g opacity="1"><rect x="172" y="375.35" width="98" height="38" rx="8" fill="#FFFFFF" stroke="#DFDFE3"/><text x="221.0" y="399.35" text-anchor="middle" font-size="14" font-weight="600" fill="#1D1D1F">模型文件夹</text></g><g opacity="1"><rect x="278" y="375.35" width="98" height="38" rx="8" fill="#FFFFFF" stroke="#DFDFE3"/><text x="327.0" y="399.35" text-anchor="middle" font-size="14" font-weight="600" fill="#1D1D1F">节点文件夹</text></g><text x="52.00" y="438.35" font-size="13" font-weight="400" fill="#1D1D1F">›  版本详情与资源目录</text><rect x="32.00" y="544.20" width="892.00" height="158.00" rx="12" fill="#FFFFFF" stroke="#DFDFE3"/><text x="52.00" y="581.20" font-size="17" font-weight="600" fill="#1D1D1F">导入与安装</text><text x="52.00" y="611.85" font-size="13" font-weight="400" fill="#646469">检查资源，再安装到实例。</text><g opacity="1"><rect x="52" y="643.7" width="86" height="38" rx="8" fill="#FFFFFF" stroke="#DFDFE3"/><text x="95.0" y="667.7" text-anchor="middle" font-size="14" font-weight="600" fill="#1D1D1F">导入资源</text></g><text x="494.00" y="581.20" font-size="17" font-weight="600" fill="#1D1D1F">管理与分享</text><text x="494.00" y="611.85" font-size="13" font-weight="400" fill="#646469">选择资源，导出为资源包。</text><g opacity="1"><rect x="494.0" y="643.7" width="86" height="38" rx="8" fill="#FFFFFF" stroke="#DFDFE3"/><text x="537.0" y="667.7" text-anchor="middle" font-size="14" font-weight="600" fill="#1D1D1F">导出打包</text></g><rect x="948.00" y="242.20" width="300.00" height="460.00" rx="12" fill="#FFFFFF" stroke="#DFDFE3"/><text x="968.00" y="279.20" font-size="17" font-weight="600" fill="#1D1D1F">当前状态</text><text x="968.00" y="330.85" font-size="16" font-weight="600" fill="#1D1D1F">可查看资源</text><text x="968.00" y="363.05" font-size="13" font-weight="400" fill="#646469">资源来自当前所选实例。</text><text x="968.00" y="417.90" font-size="13" font-weight="400" fill="#646469">工作流                                 —</text><text x="968.00" y="448.75" font-size="13" font-weight="400" fill="#646469">模型                                    —</text><text x="968.00" y="479.60" font-size="13" font-weight="400" fill="#646469">节点包                                 —</text><text x="968.00" y="528.45" font-size="13" font-weight="400" fill="#1D1D1F">›  查看详情</text></g></svg>